<svg width="20" height="20" viewBox="0 0 20 20" fill="none" xmlns="http://www.w3.org/2000/svg">
<mask id="path-1-inside-1" fill="white">
<path fill-rule="evenodd" clip-rule="evenodd" d="M10 0C9.44771 0 9 0.447715 9 1V9H1C0.447715 9 0 9.44771 0 10C0 10.5523 0.447715 11 1 11H9V19C9 19.5523 9.44771 20 10 20C10.5523 20 11 19.5523 11 19V11H19C19.5523 11 20 10.5523 20 10C20 9.44771 19.5523 9 19 9H11V1C11 0.447715 10.5523 0 10 0Z"/>
</mask>
<path d="M9 9V10H10V9H9ZM9 11H10V10H9V11ZM11 11V10H10V11H11ZM11 9H10V10H11V9ZM10 1V1V-1C8.89543 -1 8 -0.104569 8 1H10ZM10 9V1H8V9H10ZM1 10H9V8H1V10ZM1 10V8C-0.104569 8 -1 8.89543 -1 10H1ZM1 10H1H-1C-1 11.1046 -0.104569 12 1 12V10ZM9 10H1V12H9V10ZM10 19V11H8V19H10ZM10 19H8C8 20.1046 8.89543 21 10 21V19ZM10 19V21C11.1046 21 12 20.1046 12 19H10ZM10 11V19H12V11H10ZM19 10H11V12H19V10ZM19 10V12C20.1046 12 21 11.1046 21 10H19ZM19 10H21C21 8.89543 20.1046 8 19 8V10ZM11 10H19V8H11V10ZM10 1V9H12V1H10ZM10 1H12C12 -0.104569 11.1046 -1 10 -1V1Z" fill="#3C4046" mask="url(#path-1-inside-1)"/>
</svg>
