<svg width="20" height="14" viewBox="0 0 20 14" fill="none" xmlns="http://www.w3.org/2000/svg">
<mask id="path-1-inside-1" fill="white">
<path fill-rule="evenodd" clip-rule="evenodd" d="M6.12132 0.464463C6.51184 0.0739389 7.14501 0.0739387 7.53553 0.464463C7.92606 0.854987 7.92606 1.48815 7.53553 1.87868L3.41421 6H19C19.5523 6 20 6.44771 20 7C20 7.55228 19.5523 8 19 8H3.41421L7.53553 12.1213C7.92606 12.5118 7.92606 13.145 7.53553 13.5355C7.14501 13.9261 6.51184 13.9261 6.12132 13.5355L0.464466 7.87868C0.435371 7.84958 0.408443 7.81914 0.383683 7.78755C0.150098 7.6045 0 7.31978 0 7C0 6.68022 0.150098 6.3955 0.383684 6.21244C0.408443 6.18085 0.435371 6.15041 0.464466 6.12132L6.12132 0.464463Z"/>
</mask>
<path fill-rule="evenodd" clip-rule="evenodd" d="M6.12132 0.464463C6.51184 0.0739389 7.14501 0.0739387 7.53553 0.464463C7.92606 0.854987 7.92606 1.48815 7.53553 1.87868L3.41421 6H19C19.5523 6 20 6.44771 20 7C20 7.55228 19.5523 8 19 8H3.41421L7.53553 12.1213C7.92606 12.5118 7.92606 13.145 7.53553 13.5355C7.14501 13.9261 6.51184 13.9261 6.12132 13.5355L0.464466 7.87868C0.435371 7.84958 0.408443 7.81914 0.383683 7.78755C0.150098 7.6045 0 7.31978 0 7C0 6.68022 0.150098 6.3955 0.383684 6.21244C0.408443 6.18085 0.435371 6.15041 0.464466 6.12132L6.12132 0.464463Z" fill="#D8D8D8"/>
<path d="M7.53553 0.464463L6.82843 1.17157L6.82843 1.17157L7.53553 0.464463ZM6.12132 0.464463L5.41421 -0.242644V-0.242644L6.12132 0.464463ZM7.53553 1.87868L6.82843 1.17157V1.17157L7.53553 1.87868ZM3.41421 6L2.70711 5.29289L1 7H3.41421V6ZM3.41421 8V7H1L2.70711 8.7071L3.41421 8ZM7.53553 12.1213L8.24264 11.4142L7.53553 12.1213ZM7.53553 13.5355L8.24264 14.2426L8.24264 14.2426L7.53553 13.5355ZM6.12132 13.5355L5.41421 14.2426L5.41421 14.2426L6.12132 13.5355ZM0.464466 7.87868L-0.242643 8.58578L-0.242641 8.58578L0.464466 7.87868ZM0.383683 7.78755L1.17072 7.17065L1.09593 7.07523L1.00051 7.00045L0.383683 7.78755ZM0.383684 6.21244L1.00051 6.99954L1.09593 6.92476L1.17072 6.82935L0.383684 6.21244ZM0.464466 6.12132L1.17157 6.82843L1.17157 6.82842L0.464466 6.12132ZM8.24264 -0.242643C7.46159 -1.02369 6.19526 -1.02369 5.41421 -0.242644L6.82843 1.17157V1.17157L8.24264 -0.242643ZM8.24264 2.58578C9.02369 1.80473 9.02369 0.538405 8.24264 -0.242644L6.82843 1.17157V1.17157L8.24264 2.58578ZM4.12132 6.7071L8.24264 2.58578L6.82843 1.17157L2.70711 5.29289L4.12132 6.7071ZM3.41421 7H19V5H3.41421V7ZM19 7H21C21 5.89543 20.1046 5 19 5V7ZM19 7V9C20.1046 9 21 8.10457 21 7H19ZM19 7H3.41421V9H19V7ZM8.24264 11.4142L4.12132 7.29289L2.70711 8.7071L6.82843 12.8284L8.24264 11.4142ZM8.24264 14.2426C9.02369 13.4616 9.02369 12.1953 8.24264 11.4142L6.82843 12.8284V12.8284L8.24264 14.2426ZM5.41421 14.2426C6.19526 15.0237 7.46159 15.0237 8.24264 14.2426L6.82843 12.8284H6.82843L5.41421 14.2426ZM-0.242641 8.58578L5.41421 14.2426L6.82843 12.8284L1.17157 7.17157L-0.242641 8.58578ZM-0.403355 8.40445C-0.353846 8.46762 -0.300235 8.52819 -0.242643 8.58578L1.17158 7.17157C1.17098 7.17097 1.17073 7.17066 1.17072 7.17065L-0.403355 8.40445ZM1.00051 7.00045L1 7H-1C-1 7.64007 -0.698194 8.2102 -0.233144 8.57465L1.00051 7.00045ZM1 7L1.00051 6.99954L-0.233143 5.42534C-0.698194 5.78979 -1 6.35992 -1 7H1ZM-0.242639 5.41421C-0.300234 5.4718 -0.353845 5.53238 -0.403352 5.59554L1.17072 6.82935C1.17073 6.82933 1.17098 6.82902 1.17157 6.82843L-0.242639 5.41421ZM5.41421 -0.242644L-0.24264 5.41421L1.17157 6.82842L6.82843 1.17157L5.41421 -0.242644Z" fill="#3C4046" mask="url(#path-1-inside-1)"/>
</svg>
