<svg width="18" height="21" viewBox="0 0 18 21" fill="none" xmlns="http://www.w3.org/2000/svg">
<path fill-rule="evenodd" clip-rule="evenodd" d="M15.8824 14.7V8.925C15.8824 5.67 13.6588 3.045 10.5882 2.31V1.575C10.5882 0.735 9.84706 0 9 0C8.15294 0 7.41176 0.735 7.41176 1.575V2.31C4.34118 3.045 2.11765 5.67 2.11765 8.925V14.7L0 16.8V17.85H18V16.8L15.8824 14.7ZM9 21C10.1647 21 11.1176 20.055 11.1176 18.9H6.88235C6.88235 20.055 7.83529 21 9 21ZM4.23529 15.75H13.7647V8.925C13.7647 6.3 11.6471 4.2 9 4.2C6.35294 4.2 4.23529 6.3 4.23529 8.925V15.75Z" fill="#3C4046"/>
</svg>
