<svg width="27" height="7" viewBox="0 0 27 7" fill="none" xmlns="http://www.w3.org/2000/svg">
<path d="M5 3.5C5 4.32843 4.32843 5 3.5 5V7C5.433 7 7 5.433 7 3.5H5ZM3.5 2C4.32843 2 5 2.67157 5 3.5H7C7 1.567 5.433 0 3.5 0V2ZM2 3.5C2 2.67157 2.67157 2 3.5 2V0C1.567 0 0 1.567 0 3.5H2ZM3.5 5C2.67157 5 2 4.32843 2 3.5H0C0 5.433 1.567 7 3.5 7V5ZM15 3.5C15 4.32843 14.3284 5 13.5 5V7C15.433 7 17 5.433 17 3.5H15ZM13.5 2C14.3284 2 15 2.67157 15 3.5H17C17 1.567 15.433 0 13.5 0V2ZM12 3.5C12 2.67157 12.6716 2 13.5 2V0C11.567 0 10 1.567 10 3.5H12ZM13.5 5C12.6716 5 12 4.32843 12 3.5H10C10 5.433 11.567 7 13.5 7V5ZM23.5 7C25.433 7 27 5.433 27 3.5H25C25 4.32843 24.3284 5 23.5 5V7ZM20 3.5C20 5.433 21.567 7 23.5 7V5C22.6716 5 22 4.32843 22 3.5H20ZM23.5 0C21.567 0 20 1.567 20 3.5H22C22 2.67157 22.6716 2 23.5 2V0ZM27 3.5C27 1.567 25.433 0 23.5 0V2C24.3284 2 25 2.67157 25 3.5H27Z" fill="#3C4046"/>
</svg>
