<svg width="23" height="23" viewBox="0 0 23 23" fill="none" xmlns="http://www.w3.org/2000/svg">
<path fill-rule="evenodd" clip-rule="evenodd" d="M16.7602 4.61192C19.282 4.15974 21.8939 5.60514 22.7374 8.20136C23.581 10.7976 22.3176 13.5017 20.0115 14.6186C21.238 16.9183 20.6122 19.8372 18.4451 21.4117C16.2932 22.9751 13.3223 22.6941 11.5 20.8019C9.67734 22.6945 6.70563 22.9743 4.55486 21.4118C2.38769 19.8372 1.76184 16.9183 2.98839 14.6186C0.682908 13.502 -0.581149 10.7981 0.262574 8.20136C1.10621 5.60487 3.71774 4.15992 6.23979 4.61192C6.59925 2.03048 8.82118 0.0368958 11.5 0.0368958C14.1788 0.0368958 16.4007 2.03048 16.7602 4.61192ZM18.3623 13.3181L18.7723 13.1849C20.6198 12.5846 21.6289 10.6037 21.0287 8.75655C20.4284 6.90891 18.4474 5.90005 16.6004 6.50017L16.1902 6.63345C15.6107 6.82163 15.0143 6.38957 15.0143 5.77908V5.34787C15.0143 3.41008 13.4378 1.8335 11.5 1.8335C9.56221 1.8335 7.98563 3.41003 7.98563 5.34787V5.77908C7.98563 6.38961 7.3892 6.82158 6.80971 6.63345L6.39958 6.50021C4.54484 5.89754 2.56909 6.9165 1.97127 8.75655C1.37089 10.604 2.38046 12.5847 4.22765 13.1849L4.63769 13.3181C5.21705 13.5063 5.4457 14.2066 5.08687 14.7005L4.83342 15.0493C3.69438 16.617 4.0432 18.8191 5.61093 19.9582C7.17861 21.0972 9.38073 20.7484 10.5198 19.1807L10.7732 18.8318C11.1313 18.339 11.8679 18.3378 12.2268 18.8318L12.4802 19.1807C13.6192 20.7484 15.8213 21.0972 17.3891 19.9582C18.9568 18.8192 19.3056 16.6171 18.1665 15.0493L17.9131 14.7005C17.5551 14.2077 17.7817 13.5069 18.3623 13.3181Z"/>
<path fill-rule="evenodd" clip-rule="evenodd" d="M7.90665 11.7756C7.90665 9.79427 9.51862 8.18234 11.4999 8.18234C13.4814 8.18234 15.0932 9.79427 15.0932 11.7756C15.0932 13.757 13.4813 15.3689 11.4999 15.3689C9.51858 15.3689 7.90665 13.757 7.90665 11.7756ZM9.7033 11.7756C9.7033 12.7663 10.5093 13.5722 11.4999 13.5722C12.4906 13.5722 13.2966 12.7663 13.2966 11.7756C13.2966 10.7849 12.4906 9.97895 11.4999 9.97895C10.5093 9.97895 9.7033 10.7849 9.7033 11.7756Z"/>
</svg>
