<svg width="24" height="21" viewBox="0 0 24 21" fill="none" xmlns="http://www.w3.org/2000/svg">
<path fill-rule="evenodd" clip-rule="evenodd" d="M17.1562 1C18.8044 1 20.3098 1.68222 21.3949 2.92102C22.4299 4.1028 23 5.68548 23 7.37754C23 9.2194 22.2853 10.9325 20.7508 12.7687C19.3794 14.4099 17.4064 16.1015 15.1218 18.0602L15.114 18.0669C14.265 18.7949 13.3871 19.5476 12.4527 20.3702L12.4245 20.395C12.303 20.502 12.1515 20.5556 12 20.5556C11.8485 20.5556 11.697 20.5021 11.5755 20.395L11.5473 20.3702C10.6102 19.5452 9.72986 18.7904 8.87861 18.0606L8.87832 18.0603C6.59363 16.1015 4.62063 14.4098 3.2492 12.7687C1.7147 10.9325 1 9.2194 1 7.37754C1 5.68548 1.57007 4.1028 2.6051 2.92106C3.69023 1.68226 5.19555 1 6.84375 1C9.16183 1 10.6294 2.39297 11.4524 3.56156C11.6659 3.8648 11.8475 4.16886 12 4.45498C12.1525 4.16886 12.3341 3.8648 12.5476 3.56156C13.3706 2.39297 14.8382 1 17.1562 1ZM12 19.0465C12.7964 18.3499 13.5517 17.7023 14.2856 17.0731C18.7571 13.2394 21.7109 10.7068 21.7109 7.37753C21.7109 6.00142 21.2553 4.72328 20.4278 3.77859C19.5909 2.82318 18.429 2.29699 17.1562 2.29699C15.389 2.29699 14.2466 3.39243 13.5995 4.31136C13.019 5.13559 12.7161 5.96645 12.6128 6.28538C12.5264 6.55234 12.279 6.73302 12 6.73302C11.721 6.73302 11.4736 6.55234 11.3872 6.28538C11.2839 5.96645 10.981 5.13559 10.4005 4.3114C9.75342 3.39244 8.61101 2.29699 6.84375 2.29699C5.57097 2.29699 4.40914 2.82318 3.5722 3.77859C2.74475 4.72328 2.28906 6.00142 2.28906 7.37753C2.28906 10.7068 5.24295 13.2394 9.71423 17.073C10.4483 17.7024 11.2036 18.35 12 19.0465Z"/>
<path d="M21.3949 2.92102L21.6205 2.72336L21.6205 2.72335L21.3949 2.92102ZM20.7508 12.7687L20.5206 12.5763L20.5206 12.5763L20.7508 12.7687ZM15.1218 18.0602L15.3171 18.288L15.3171 18.288L15.1218 18.0602ZM15.114 18.0669L14.9188 17.8392L14.9187 17.8392L15.114 18.0669ZM12.4527 20.3702L12.2544 20.145L12.2543 20.1452L12.4527 20.3702ZM12.4245 20.395L12.6228 20.6202L12.6229 20.6201L12.4245 20.395ZM11.5755 20.395L11.3771 20.6201L11.3772 20.6201L11.5755 20.395ZM11.5473 20.3702L11.7457 20.1452L11.7456 20.145L11.5473 20.3702ZM8.87861 18.0606L9.07389 17.8328L9.07349 17.8325L8.87861 18.0606ZM8.87832 18.0603L8.68305 18.2881L8.68345 18.2884L8.87832 18.0603ZM3.2492 12.7687L3.4794 12.5763L3.4794 12.5763L3.2492 12.7687ZM2.6051 2.92106L2.37943 2.72339L2.37942 2.7234L2.6051 2.92106ZM11.4524 3.56156L11.2071 3.73429L11.2071 3.7343L11.4524 3.56156ZM12 4.45498L11.7353 4.59608L12 5.0928L12.2647 4.59608L12 4.45498ZM12.5476 3.56156L12.3024 3.38883L12.3023 3.38885L12.5476 3.56156ZM14.2856 17.0731L14.4809 17.3009L14.4809 17.3009L14.2856 17.0731ZM12 19.0465L11.8025 19.2724L12 19.4451L12.1975 19.2724L12 19.0465ZM20.4278 3.77859L20.6534 3.58092L20.6534 3.58092L20.4278 3.77859ZM13.5995 4.31136L13.8447 4.48409L13.8448 4.48409L13.5995 4.31136ZM12.6128 6.28538L12.3274 6.19294L12.3274 6.193L12.6128 6.28538ZM11.3872 6.28538L11.6726 6.193L11.6726 6.19294L11.3872 6.28538ZM10.4005 4.3114L10.1552 4.48412L10.1553 4.48414L10.4005 4.3114ZM3.5722 3.77859L3.34653 3.58091L3.34652 3.58093L3.5722 3.77859ZM9.71423 17.073L9.51896 17.3008L9.51897 17.3008L9.71423 17.073ZM21.6205 2.72335C20.4784 1.41945 18.8908 0.7 17.1562 0.7V1.3C18.7181 1.3 20.1411 1.94499 21.1692 3.11869L21.6205 2.72335ZM23.3 7.37754C23.3 5.61883 22.7074 3.96424 21.6205 2.72336L21.1692 3.11868C22.1525 4.24136 22.7 5.75213 22.7 7.37754H23.3ZM20.981 12.9611C22.5469 11.0873 23.3 9.30849 23.3 7.37754H22.7C22.7 9.13031 22.0237 10.7777 20.5206 12.5763L20.981 12.9611ZM15.3171 18.288C17.5951 16.3349 19.5901 14.6256 20.981 12.9611L20.5206 12.5763C19.1687 14.1942 17.2177 15.8681 14.9265 17.8325L15.3171 18.288ZM15.3093 18.2947L15.3171 18.288L14.9266 17.8325L14.9188 17.8392L15.3093 18.2947ZM12.6509 20.5954C13.5836 19.7743 14.4601 19.0228 15.3093 18.2947L14.9187 17.8392C14.0698 18.567 13.1905 19.321 12.2544 20.145L12.6509 20.5954ZM12.6229 20.6201L12.6511 20.5952L12.2543 20.1452L12.2261 20.17L12.6229 20.6201ZM12 20.8556C12.2223 20.8556 12.4448 20.7769 12.6228 20.6202L12.2263 20.1699C12.1612 20.2272 12.0808 20.2556 12 20.2556V20.8556ZM11.3772 20.6201C11.5552 20.777 11.7778 20.8556 12 20.8556V20.2556C11.9192 20.2556 11.8388 20.2272 11.7738 20.1699L11.3772 20.6201ZM11.3489 20.5952L11.3771 20.6201L11.7739 20.17L11.7457 20.1452L11.3489 20.5952ZM8.68334 18.2883C9.53474 19.0183 10.4136 19.7719 11.3491 20.5954L11.7456 20.145C10.8067 19.3185 9.92498 18.5626 9.07389 17.8328L8.68334 18.2883ZM8.68345 18.2884L8.68374 18.2887L9.07349 17.8325L9.07319 17.8322L8.68345 18.2884ZM3.019 12.9611C4.40994 14.6256 6.40495 16.3349 8.68305 18.2881L9.07359 17.8326C6.78231 15.8681 4.83133 14.1941 3.4794 12.5763L3.019 12.9611ZM0.7 7.37754C0.7 9.30848 1.45311 11.0873 3.019 12.9611L3.4794 12.5763C1.97629 10.7777 1.3 9.13031 1.3 7.37754H0.7ZM2.37942 2.7234C1.29262 3.96424 0.7 5.61883 0.7 7.37754H1.3C1.3 5.75212 1.84751 4.24136 2.83077 3.11873L2.37942 2.7234ZM6.84375 0.7C5.10918 0.7 3.52158 1.4195 2.37943 2.72339L2.83076 3.11874C3.85888 1.94503 5.28193 1.3 6.84375 1.3V0.7ZM11.6976 3.38883C10.8464 2.18005 9.29947 0.7 6.84375 0.7V1.3C9.02419 1.3 10.4124 2.6059 11.2071 3.73429L11.6976 3.38883ZM12.2647 4.31387C12.1073 4.01852 11.9194 3.70366 11.6976 3.38883L11.2071 3.7343C11.4125 4.02594 11.5877 4.3192 11.7353 4.59608L12.2647 4.31387ZM12.3023 3.38885C12.0807 3.70365 11.8927 4.0185 11.7353 4.31387L12.2647 4.59608C12.4123 4.31922 12.5876 4.02595 12.7929 3.73428L12.3023 3.38885ZM17.1562 0.7C14.7005 0.7 13.1536 2.18005 12.3024 3.38883L12.7929 3.73429C13.5876 2.6059 14.9758 1.3 17.1562 1.3V0.7ZM14.0904 16.8454C13.3566 17.4745 12.6002 18.123 11.8025 18.8207L12.1975 19.2724C12.9927 18.5769 13.7469 17.9302 14.4809 17.3009L14.0904 16.8454ZM21.4109 7.37753C21.4109 8.9429 20.72 10.3415 19.4464 11.842C18.1678 13.3484 16.3326 14.9229 14.0904 16.8454L14.4809 17.3009C16.7101 15.3896 18.5876 13.781 19.9038 12.2303C21.2249 10.6738 22.0109 9.14142 22.0109 7.37753H21.4109ZM20.2021 3.97627C20.9769 4.86085 21.4109 6.06663 21.4109 7.37753H22.0109C22.0109 5.93622 21.5336 4.58571 20.6534 3.58092L20.2021 3.97627ZM17.1562 2.59699C18.3428 2.59699 19.4223 3.08604 20.2021 3.97627L20.6534 3.58092C19.7594 2.56033 18.5153 1.99699 17.1562 1.99699V2.59699ZM13.8448 4.48409C14.4659 3.602 15.5294 2.59699 17.1562 2.59699V1.99699C15.2486 1.99699 14.0272 3.18287 13.3542 4.13862L13.8448 4.48409ZM12.8982 6.37782C12.9967 6.07368 13.2884 5.27414 13.8447 4.48409L13.3542 4.13862C12.7496 4.99705 12.4355 5.85922 12.3274 6.19294L12.8982 6.37782ZM12 7.03302C12.4101 7.03302 12.7721 6.76757 12.8982 6.37776L12.3274 6.193C12.2807 6.33712 12.148 6.43302 12 6.43302V7.03302ZM11.1018 6.37776C11.2279 6.76757 11.5899 7.03302 12 7.03302V6.43302C11.852 6.43302 11.7193 6.33712 11.6726 6.193L11.1018 6.37776ZM10.1553 4.48414C10.7116 5.27415 11.0033 6.07368 11.1018 6.37782L11.6726 6.19294C11.5645 5.85922 11.2503 4.99704 10.6458 4.13866L10.1553 4.48414ZM6.84375 2.59699C8.47062 2.59699 9.53408 3.602 10.1552 4.48412L10.6458 4.13867C9.97277 3.18287 8.75141 1.99699 6.84375 1.99699V2.59699ZM3.79786 3.97627C4.57771 3.08604 5.65722 2.59699 6.84375 2.59699V1.99699C5.48472 1.99699 4.24058 2.56033 3.34653 3.58091L3.79786 3.97627ZM2.58906 7.37753C2.58906 6.06663 3.02306 4.86084 3.79787 3.97626L3.34652 3.58093C2.46643 4.58572 1.98906 5.93622 1.98906 7.37753H2.58906ZM9.9095 16.8453C7.66735 14.9229 5.8322 13.3484 4.55364 11.842C3.28001 10.3415 2.58906 8.9429 2.58906 7.37753H1.98906C1.98906 9.14142 2.77506 10.6738 4.0962 12.2303C5.4124 13.781 7.28983 15.3896 9.51896 17.3008L9.9095 16.8453ZM12.1975 18.8207C11.3998 18.1231 10.6434 17.4745 9.9095 16.8453L9.51897 17.3008C10.2531 17.9302 11.0074 18.577 11.8025 19.2724L12.1975 18.8207Z"/>
</svg>
