<svg width="22" height="22" viewBox="0 0 22 22" xmlns="http://www.w3.org/2000/svg">
<path fill-rule="evenodd" clip-rule="evenodd" d="M18.0711 13.9289C16.9819 12.8398 15.6855 12.0335 14.2711 11.5454C15.786 10.502 16.7812 8.75578 16.7812 6.78125C16.7812 3.59348 14.1878 1 11 1C7.81223 1 5.21875 3.59348 5.21875 6.78125C5.21875 8.75578 6.21402 10.502 7.72898 11.5454C6.31453 12.0335 5.01813 12.8398 3.92895 13.9289C2.056 15.8019 1.01747 18.2869 1.00022 20.933L1 20.95L1.00008 20.9601L1 21H1.00189C1.02743 21.3356 1.30784 21.6 1.65 21.6H20.35C20.6922 21.6 20.9726 21.3356 20.9981 21H21L20.9999 20.9601L21 20.95L20.9998 20.933C20.9825 18.2869 19.944 15.8019 18.0711 13.9289ZM11 12.5625C15.4168 12.5625 19.0518 15.9738 19.4087 20.3H2.59126C2.94821 15.9738 6.58322 12.5625 11 12.5625ZM6.78125 6.78125C6.78125 9.1075 8.67379 11 11 11C13.3262 11 15.2188 9.1075 15.2188 6.78125C15.2188 4.455 13.3262 2.5625 11 2.5625C8.67379 2.5625 6.78125 4.455 6.78125 6.78125Z" />
<path d="M14.2711 11.5454L14.186 11.4219L13.9414 11.5903L14.2221 11.6872L14.2711 11.5454ZM18.0711 13.9289L18.1772 13.8228L18.1772 13.8228L18.0711 13.9289ZM7.72898 11.5454L7.77791 11.6872L8.05866 11.5903L7.81407 11.4219L7.72898 11.5454ZM3.92895 13.9289L3.82288 13.8228L3.82288 13.8228L3.92895 13.9289ZM1.00022 20.933L1.15021 20.9349L1.15022 20.934L1.00022 20.933ZM1 20.95L0.849981 20.9481L0.850004 20.9511L1 20.95ZM1.00008 20.9601L1.15008 20.9604L1.15007 20.959L1.00008 20.9601ZM1 21L0.85 20.9997L0.849709 21.15H1V21ZM1.00189 21L1.15146 20.9886L1.14092 20.85H1.00189V21ZM20.9981 21V20.85H20.8591L20.8485 20.9886L20.9981 21ZM21 21V21.15H21.1503L21.15 20.9997L21 21ZM20.9999 20.9601L20.8499 20.959L20.8499 20.9604L20.9999 20.9601ZM21 20.95L21.15 20.9512L21.15 20.9481L21 20.95ZM20.9998 20.933L20.8498 20.934L20.8498 20.9349L20.9998 20.933ZM19.4087 20.3V20.45H19.5716L19.5582 20.2877L19.4087 20.3ZM2.59126 20.3L2.44177 20.2877L2.42838 20.45H2.59126V20.3ZM14.2221 11.6872C15.615 12.1678 16.8919 12.9619 17.965 14.035L18.1772 13.8228C17.0719 12.7177 15.756 11.8991 14.32 11.4036L14.2221 11.6872ZM16.6313 6.78125C16.6313 8.70417 15.6621 10.4051 14.186 11.4219L14.3561 11.6689C15.9098 10.5988 16.9312 8.80739 16.9312 6.78125H16.6313ZM11 1.15C14.1049 1.15 16.6313 3.67632 16.6313 6.78125H16.9312C16.9312 3.51063 14.2706 0.85 11 0.85V1.15ZM5.36875 6.78125C5.36875 3.67632 7.89507 1.15 11 1.15V0.85C7.72938 0.85 5.06875 3.51063 5.06875 6.78125H5.36875ZM7.81407 11.4219C6.33785 10.4051 5.36875 8.70417 5.36875 6.78125H5.06875C5.06875 8.80739 6.09019 10.5988 7.6439 11.6689L7.81407 11.4219ZM4.03501 14.035C5.10816 12.9619 6.38505 12.1678 7.77791 11.6872L7.68006 11.4036C6.24401 11.8991 4.92809 12.7177 3.82288 13.8228L4.03501 14.035ZM1.15022 20.934C1.16721 18.3274 2.18995 15.8801 4.03501 14.035L3.82288 13.8228C1.92205 15.7237 0.867727 18.2465 0.850222 20.932L1.15022 20.934ZM1.14999 20.9519L1.15021 20.9349L0.850231 20.9311L0.850012 20.9481L1.14999 20.9519ZM1.15007 20.959L1.15 20.9489L0.850004 20.9511L0.850082 20.9613L1.15007 20.959ZM1.15 21.0003L1.15008 20.9604L0.850078 20.9598L0.85 20.9997L1.15 21.0003ZM1.00189 20.85H1V21.15H1.00189V20.85ZM1.65 21.45C1.38687 21.45 1.17109 21.2466 1.15146 20.9886L0.852327 21.0114C0.883762 21.4246 1.22881 21.75 1.65 21.75V21.45ZM20.35 21.45H1.65V21.75H20.35V21.45ZM20.8485 20.9886C20.8289 21.2466 20.6131 21.45 20.35 21.45V21.75C20.7712 21.75 21.1162 21.4246 21.1477 21.0114L20.8485 20.9886ZM21 20.85H20.9981V21.15H21V20.85ZM20.8499 20.9604L20.85 21.0003L21.15 20.9997L21.1499 20.9598L20.8499 20.9604ZM20.85 20.9488L20.8499 20.959L21.1499 20.9613L21.15 20.9512L20.85 20.9488ZM20.8498 20.9349L20.85 20.9519L21.15 20.9481L21.1498 20.9311L20.8498 20.9349ZM17.965 14.035C19.81 15.8801 20.8328 18.3274 20.8498 20.934L21.1498 20.932C21.1323 18.2465 20.078 15.7237 18.1772 13.8228L17.965 14.035ZM19.5582 20.2877C19.1949 15.8843 15.4955 12.4125 11 12.4125V12.7125C15.338 12.7125 18.9087 16.0632 19.2592 20.3123L19.5582 20.2877ZM2.59126 20.45H19.4087V20.15H2.59126V20.45ZM11 12.4125C6.50446 12.4125 2.80508 15.8843 2.44177 20.2877L2.74075 20.3123C3.09135 16.0632 6.66199 12.7125 11 12.7125V12.4125ZM11 10.85C8.75663 10.85 6.93125 9.02466 6.93125 6.78125H6.63125C6.63125 9.19034 8.59095 11.15 11 11.15V10.85ZM15.0688 6.78125C15.0688 9.02466 13.2434 10.85 11 10.85V11.15C13.4091 11.15 15.3687 9.19034 15.3687 6.78125H15.0688ZM11 2.7125C13.2434 2.7125 15.0688 4.53784 15.0688 6.78125H15.3687C15.3687 4.37216 13.4091 2.4125 11 2.4125V2.7125ZM6.93125 6.78125C6.93125 4.53784 8.75663 2.7125 11 2.7125V2.4125C8.59095 2.4125 6.63125 4.37216 6.63125 6.78125H6.93125Z" />
</svg>
